<svg width="139" height="27" viewBox="0 0 139 27" fill="none" xmlns="http://www.w3.org/2000/svg">
<path d="M1.53176 14.4618C1.52347 17.2688 2.42714 19.5485 3.88278 21.1147C5.33144 22.6734 7.40996 23.6176 9.95104 23.6251C15.0181 23.64 19.0758 19.9217 19.0918 14.5137C19.1071 9.34754 14.6737 6.0762 9.33535 6.06044C6.7236 6.05273 4.83484 6.85237 3.5872 8.17895C2.32651 9.5194 1.54024 11.5899 1.53176 14.4618Z" stroke="#6A7C94" stroke-width="3"/>
<path d="M30.2892 23.2612L28.4092 23.5065C27.5236 23.5358 27.2158 23.5418 26.9785 23.517C25.2074 23.3325 23.8247 21.9978 23.5838 20.3208C23.5507 20.0908 23.5469 19.787 23.5469 18.8609V10.7445C23.5469 10.0649 23.549 9.84211 23.567 9.67145C23.7522 7.92201 25.1799 6.50741 27.0234 6.3366C27.1981 6.32042 27.4225 6.32004 28.0654 6.32563L29.9632 6.50158C32.467 6.73371 33.4051 6.83549 34.1332 7.12149C35.78 7.76835 37.0237 9.11365 37.5235 10.7619C37.7435 11.4877 37.762 12.4005 37.7694 14.8748C37.7767 17.2771 37.7643 18.1627 37.5579 18.8751C37.0893 20.4919 35.9059 21.8295 34.318 22.5114C33.6153 22.8131 32.7099 22.9454 30.2892 23.2612Z" stroke="#6A7C94" stroke-width="3"/>
<path d="M49.1882 22.2349C48.0138 22.2349 46.996 21.9765 46.1348 21.4598C45.2736 20.943 44.6055 20.2201 44.1305 19.2911C43.6607 18.362 43.4258 17.2763 43.4258 16.0341C43.4258 14.7918 43.6607 13.7035 44.1305 12.7692C44.6055 11.8349 45.2736 11.1094 46.1348 10.5927C46.996 10.076 48.0138 9.81759 49.1882 9.81759C50.3626 9.81759 51.3804 10.076 52.2417 10.5927C53.1029 11.1094 53.7684 11.8349 54.2381 12.7692C54.7131 13.7035 54.9506 14.7918 54.9506 16.0341C54.9506 17.2763 54.7131 18.362 54.2381 19.2911C53.7684 20.2201 53.1029 20.943 52.2417 21.4598C51.3804 21.9765 50.3626 22.2349 49.1882 22.2349ZM49.2039 19.9644C49.8407 19.9644 50.3731 19.7895 50.8011 19.4398C51.2291 19.0849 51.5475 18.6099 51.7562 18.0149C51.9702 17.4199 52.0772 16.757 52.0772 16.0262C52.0772 15.2903 51.9702 14.6248 51.7562 14.0298C51.5475 13.4295 51.2291 12.9519 50.8011 12.597C50.3731 12.2421 49.8407 12.0646 49.2039 12.0646C48.5514 12.0646 48.0086 12.2421 47.5754 12.597C47.1474 12.9519 46.8264 13.4295 46.6124 14.0298C46.4036 14.6248 46.2992 15.2903 46.2992 16.0262C46.2992 16.757 46.4036 17.4199 46.6124 18.0149C46.8264 18.6099 47.1474 19.0849 47.5754 19.4398C48.0086 19.7895 48.5514 19.9644 49.2039 19.9644ZM59.088 14.9536V22H56.2538V9.97417H58.9627V12.0176H59.1037C59.3803 11.3443 59.8213 10.8093 60.4268 10.4126C61.0375 10.0159 61.7917 9.81759 62.6895 9.81759C63.5194 9.81759 64.2423 9.99505 64.8582 10.35C65.4793 10.7049 65.9595 11.219 66.2988 11.8924C66.6433 12.5657 66.8129 13.3825 66.8077 14.3429V22H63.9735V14.7814C63.9735 13.9776 63.7647 13.3486 63.3471 12.8945C62.9348 12.4404 62.3633 12.2134 61.6325 12.2134C61.1367 12.2134 60.6956 12.323 60.3094 12.5422C59.9283 12.7562 59.6282 13.0668 59.409 13.4739C59.195 13.881 59.088 14.3742 59.088 14.9536ZM73.9105 22.2349C72.7047 22.2349 71.6634 21.9843 70.7866 21.4833C69.9149 20.977 69.2442 20.2619 68.7744 19.338C68.3047 18.409 68.0698 17.3155 68.0698 16.0576C68.0698 14.8205 68.3047 13.7349 68.7744 12.8006C69.2494 11.861 69.9123 11.1303 70.7631 10.6083C71.6139 10.0812 72.6134 9.81759 73.7617 9.81759C74.5029 9.81759 75.2023 9.93764 75.86 10.1777C76.5228 10.4126 77.1074 10.778 77.6137 11.2738C78.1252 11.7697 78.5271 12.4013 78.8194 13.1685C79.1117 13.9306 79.2579 14.8388 79.2579 15.8931V16.7622H69.4008V14.8518H76.5411C76.5359 14.309 76.4184 13.8262 76.1888 13.4034C75.9591 12.9754 75.6381 12.6388 75.2258 12.3934C74.8187 12.1481 74.3437 12.0255 73.8008 12.0255C73.2215 12.0255 72.7126 12.1664 72.2741 12.4482C71.8357 12.7249 71.4938 13.0902 71.2485 13.5443C71.0084 13.9932 70.8857 14.4865 70.8805 15.0241V16.6917C70.8805 17.3911 71.0084 17.9914 71.2641 18.4925C71.5199 18.9883 71.8774 19.3694 72.3368 19.6355C72.7961 19.8965 73.3337 20.027 73.9496 20.027C74.3619 20.027 74.7351 19.9696 75.0692 19.8548C75.4032 19.7347 75.6929 19.5599 75.9382 19.3302C76.1836 19.1005 76.3689 18.8161 76.4941 18.4768L79.1404 18.7743C78.9734 19.4737 78.655 20.0844 78.1853 20.6064C77.7207 21.1231 77.1257 21.525 76.4002 21.8121C75.6747 22.094 74.8448 22.2349 73.9105 22.2349ZM85.0159 22.2114C84.0712 22.2114 83.2256 21.9687 82.4792 21.4833C81.7329 20.9978 81.143 20.2932 80.7098 19.3694C80.2766 18.4455 80.06 17.3233 80.06 16.0027C80.06 14.6665 80.2792 13.5391 80.7177 12.6205C81.1613 11.6966 81.759 10.9998 82.5106 10.5301C83.2622 10.0551 84.0999 9.81759 85.0238 9.81759C85.7284 9.81759 86.3078 9.93764 86.7619 10.1777C87.216 10.4126 87.5761 10.6971 87.8423 11.0311C88.1085 11.36 88.3147 11.6705 88.4608 11.9628H88.5783V5.96556H91.4203V22H88.6331V20.1053H88.4608C88.3147 20.3976 88.1033 20.7082 87.8267 21.037C87.55 21.3606 87.1847 21.6372 86.7306 21.8669C86.2765 22.0966 85.7049 22.2114 85.0159 22.2114ZM85.8067 19.8861C86.407 19.8861 86.9185 19.7243 87.3413 19.4007C87.764 19.0718 88.085 18.6151 88.3043 18.0305C88.5235 17.4459 88.6331 16.7648 88.6331 15.9871C88.6331 15.2094 88.5235 14.5334 88.3043 13.9593C88.0903 13.3851 87.7719 12.9389 87.3491 12.6205C86.9315 12.3021 86.4174 12.1429 85.8067 12.1429C85.1751 12.1429 84.648 12.3073 84.2252 12.6361C83.8024 12.965 83.484 13.4191 83.27 13.9984C83.056 14.5778 82.949 15.2407 82.949 15.9871C82.949 16.7387 83.056 17.4094 83.27 17.9992C83.4892 18.5838 83.8102 19.0457 84.233 19.385C84.661 19.7191 85.1856 19.8861 85.8067 19.8861ZM98.5838 22.2349C97.4094 22.2349 96.3915 21.9765 95.5303 21.4598C94.6691 20.943 94.001 20.2201 93.526 19.2911C93.0563 18.362 92.8214 17.2763 92.8214 16.0341C92.8214 14.7918 93.0563 13.7035 93.526 12.7692C94.001 11.8349 94.6691 11.1094 95.5303 10.5927C96.3915 10.076 97.4094 9.81759 98.5838 9.81759C99.7581 9.81759 100.776 10.076 101.637 10.5927C102.498 11.1094 103.164 11.8349 103.634 12.7692C104.109 13.7035 104.346 14.7918 104.346 16.0341C104.346 17.2763 104.109 18.362 103.634 19.2911C103.164 20.2201 102.498 20.943 101.637 21.4598C100.776 21.9765 99.7581 22.2349 98.5838 22.2349ZM98.5994 19.9644C99.2362 19.9644 99.7686 19.7895 100.197 19.4398C100.625 19.0849 100.943 18.6099 101.152 18.0149C101.366 17.4199 101.473 16.757 101.473 16.0262C101.473 15.2903 101.366 14.6248 101.152 14.0298C100.943 13.4295 100.625 12.9519 100.197 12.597C99.7686 12.2421 99.2362 12.0646 98.5994 12.0646C97.947 12.0646 97.4041 12.2421 96.9709 12.597C96.5429 12.9519 96.2219 13.4295 96.0079 14.0298C95.7991 14.6248 95.6947 15.2903 95.6947 16.0262C95.6947 16.757 95.7991 17.4199 96.0079 18.0149C96.2219 18.6099 96.5429 19.0849 96.9709 19.4398C97.4041 19.7895 97.947 19.9644 98.5994 19.9644ZM110.895 22.2349C109.694 22.2349 108.664 21.9713 107.802 21.4441C106.946 20.9169 106.286 20.1888 105.822 19.2597C105.362 18.3254 105.133 17.2502 105.133 16.0341C105.133 14.8127 105.367 13.7349 105.837 12.8006C106.307 11.861 106.97 11.1303 107.826 10.6083C108.687 10.0812 109.705 9.81759 110.879 9.81759C111.855 9.81759 112.719 9.99766 113.471 10.3578C114.228 10.7127 114.83 11.2164 115.279 11.8689C115.728 12.5161 115.984 13.2729 116.047 14.1394H113.338C113.228 13.56 112.967 13.0772 112.555 12.6909C112.148 12.2995 111.602 12.1037 110.918 12.1037C110.339 12.1037 109.83 12.2603 109.392 12.5735C108.953 12.8815 108.611 13.3251 108.366 13.9045C108.126 14.4839 108.006 15.1781 108.006 15.9871C108.006 16.8066 108.126 17.5112 108.366 18.101C108.606 18.6856 108.943 19.1371 109.376 19.4555C109.815 19.7686 110.329 19.9252 110.918 19.9252C111.336 19.9252 111.709 19.8469 112.038 19.6904C112.372 19.5285 112.651 19.2963 112.876 18.9935C113.1 18.6908 113.254 18.3228 113.338 17.8896H116.047C115.979 18.7404 115.728 19.4946 115.295 20.1523C114.862 20.8047 114.272 21.3162 113.526 21.6868C112.779 22.0522 111.902 22.2349 110.895 22.2349ZM119.017 22.1722C118.543 22.1722 118.135 22.0052 117.796 21.6712C117.457 21.3371 117.29 20.93 117.295 20.4498C117.29 19.98 117.457 19.5781 117.796 19.2441C118.135 18.91 118.543 18.743 119.017 18.743C119.477 18.743 119.876 18.91 120.215 19.2441C120.56 19.5781 120.735 19.98 120.74 20.4498C120.735 20.7682 120.651 21.0579 120.489 21.3188C120.333 21.5798 120.124 21.7886 119.863 21.9452C119.607 22.0966 119.325 22.1722 119.017 22.1722ZM126.024 22.2427C125.262 22.2427 124.576 22.107 123.965 21.8356C123.36 21.5589 122.88 21.1518 122.525 20.6142C122.175 20.0766 122 19.4137 122 18.6256C122 17.947 122.125 17.3859 122.376 16.9423C122.626 16.4986 122.968 16.1437 123.402 15.8775C123.835 15.6113 124.323 15.4103 124.866 15.2746C125.414 15.1337 125.98 15.0319 126.565 14.9693C127.269 14.8962 127.841 14.831 128.279 14.7735C128.718 14.7109 129.036 14.617 129.234 14.4917C129.438 14.3612 129.54 14.1602 129.54 13.8888V13.8419C129.54 13.252 129.365 12.7953 129.015 12.4717C128.665 12.1481 128.162 11.9863 127.504 11.9863C126.81 11.9863 126.259 12.1377 125.852 12.4404C125.45 12.7431 125.179 13.1007 125.038 13.513L122.392 13.1372C122.6 12.4065 122.945 11.7958 123.425 11.3052C123.905 10.8093 124.492 10.4387 125.187 10.1934C125.881 9.94286 126.648 9.81759 127.488 9.81759C128.068 9.81759 128.645 9.88544 129.219 10.0211C129.793 10.1569 130.317 10.3813 130.792 10.6945C131.267 11.0024 131.648 11.4226 131.935 11.955C132.228 12.4874 132.374 13.1529 132.374 13.9515V22H129.649V20.348H129.555C129.383 20.6821 129.14 20.9952 128.827 21.2875C128.519 21.5746 128.13 21.8069 127.661 21.9843C127.196 22.1566 126.651 22.2427 126.024 22.2427ZM126.76 20.1601C127.329 20.1601 127.822 20.0479 128.24 19.8235C128.658 19.5938 128.979 19.2911 129.203 18.9153C129.433 18.5394 129.548 18.1297 129.548 17.686V16.2689C129.459 16.342 129.307 16.4099 129.093 16.4725C128.885 16.5351 128.65 16.5899 128.389 16.6369C128.128 16.6839 127.869 16.7257 127.614 16.7622C127.358 16.7987 127.136 16.83 126.948 16.8561C126.525 16.9136 126.147 17.0075 125.813 17.138C125.479 17.2685 125.215 17.4512 125.022 17.686C124.829 17.9157 124.732 18.2132 124.732 18.5786C124.732 19.1005 124.923 19.4946 125.304 19.7608C125.685 20.027 126.17 20.1601 126.76 20.1601ZM134.121 22V9.97417H136.956V22H134.121ZM135.546 8.26738C135.097 8.26738 134.711 8.11863 134.388 7.82111C134.064 7.51838 133.902 7.15562 133.902 6.73284C133.902 6.30483 134.064 5.94208 134.388 5.64456C134.711 5.34183 135.097 5.19046 135.546 5.19046C136 5.19046 136.387 5.34183 136.705 5.64456C137.029 5.94208 137.19 6.30483 137.19 6.73284C137.19 7.15562 137.029 7.51838 136.705 7.82111C136.387 8.11863 136 8.26738 135.546 8.26738Z" fill="#6A7C94"/>
</svg>
