<svg width="199" height="38" viewBox="0 0 199 38" fill="none" xmlns="http://www.w3.org/2000/svg">
<path d="M2.19776 20.7619C2.18587 24.7915 3.48313 28.0641 5.57279 30.3125C7.65241 32.55 10.6363 33.9055 14.2841 33.9162C21.5581 33.9377 27.3833 28.5999 27.4062 20.8363C27.4281 13.42 21.0638 8.72384 13.4002 8.70122C9.65094 8.69015 6.93951 9.83807 5.14846 11.7425C3.33867 13.6668 2.20993 16.639 2.19776 20.7619Z" stroke="#2263DE" stroke-width="4.30667"/>
<path d="M43.4808 33.394L40.7819 33.7461C39.5106 33.7881 39.0687 33.7967 38.7281 33.7612C36.1856 33.4963 34.2006 31.5803 33.8547 29.1728C33.8073 28.8426 33.8018 28.4065 33.8018 27.077V15.4255C33.8018 14.4499 33.8048 14.1301 33.8307 13.8851C34.0965 11.3737 36.1461 9.34295 38.7926 9.09773C39.0433 9.07451 39.3655 9.07397 40.2884 9.08199L43.0128 9.33458C46.6072 9.66782 47.9538 9.81392 48.9991 10.2245C51.3632 11.1531 53.1485 13.0843 53.866 15.4505C54.1819 16.4924 54.2084 17.8028 54.219 21.3548C54.2294 24.8035 54.2117 26.0748 53.9153 27.0975C53.2427 29.4184 51.5438 31.3387 49.2643 32.3176C48.2556 32.7507 46.9558 32.9406 43.4808 33.394Z" stroke="#2263DE" stroke-width="4.30667"/>
<path d="M70.6112 31.3372C68.9253 31.3372 67.4641 30.9663 66.2278 30.2245C64.9915 29.4827 64.0324 28.4449 63.3505 27.1112C62.6761 25.7774 62.339 24.2189 62.339 22.4356C62.339 20.6522 62.6761 19.09 63.3505 17.7487C64.0324 16.4075 64.9915 15.366 66.2278 14.6242C67.4641 13.8824 68.9253 13.5115 70.6112 13.5115C72.2971 13.5115 73.7582 13.8824 74.9945 14.6242C76.2309 15.366 77.1862 16.4075 77.8606 17.7487C78.5425 19.09 78.8834 20.6522 78.8834 22.4356C78.8834 24.2189 78.5425 25.7774 77.8606 27.1112C77.1862 28.4449 76.2309 29.4827 74.9945 30.2245C73.7582 30.9663 72.2971 31.3372 70.6112 31.3372ZM70.6337 28.0778C71.5478 28.0778 72.3121 27.8267 72.9265 27.3247C73.5409 26.8152 73.998 26.1333 74.2977 25.2791C74.6049 24.4249 74.7585 23.4733 74.7585 22.4243C74.7585 21.3678 74.6049 20.4125 74.2977 19.5583C73.998 18.6966 73.5409 18.011 72.9265 17.5015C72.3121 16.9919 71.5478 16.7372 70.6337 16.7372C69.697 16.7372 68.9178 16.9919 68.2959 17.5015C67.6814 18.011 67.2206 18.6966 66.9134 19.5583C66.6137 20.4125 66.4638 21.3678 66.4638 22.4243C66.4638 23.4733 66.6137 24.4249 66.9134 25.2791C67.2206 26.1333 67.6814 26.8152 68.2959 27.3247C68.9178 27.8267 69.697 28.0778 70.6337 28.0778ZM84.8228 20.8845V31H80.7542V13.7363H84.643V16.6697H84.8453C85.2425 15.7032 85.8756 14.9351 86.7448 14.3657C87.6215 13.7962 88.7042 13.5115 89.993 13.5115C91.1844 13.5115 92.2221 13.7662 93.1063 14.2758C93.998 14.7853 94.6873 15.5233 95.1744 16.4899C95.6689 17.4565 95.9124 18.6292 95.9049 20.0079V31H91.8362V20.6373C91.8362 19.4833 91.5365 18.5804 90.9371 17.9286C90.3451 17.2767 89.5247 16.9507 88.4757 16.9507C87.7638 16.9507 87.1307 17.1081 86.5762 17.4228C86.0292 17.73 85.5984 18.1758 85.2837 18.7603C84.9765 19.3447 84.8228 20.0528 84.8228 20.8845ZM106.101 31.3372C104.37 31.3372 102.876 30.9775 101.617 30.2582C100.365 29.5314 99.4026 28.5048 98.7283 27.1786C98.0539 25.8449 97.7167 24.2751 97.7167 22.4693C97.7167 20.6935 98.0539 19.1349 98.7283 17.7937C99.4101 16.445 100.362 15.3959 101.583 14.6467C102.804 13.8899 104.239 13.5115 105.888 13.5115C106.952 13.5115 107.956 13.6838 108.9 14.0285C109.852 14.3657 110.691 14.8902 111.418 15.602C112.152 16.3138 112.729 17.2205 113.148 18.3219C113.568 19.4159 113.778 20.7197 113.778 22.2333V23.4808H99.6274V20.7384H109.878C109.87 19.9591 109.702 19.2661 109.372 18.6591C109.042 18.0447 108.581 17.5614 107.99 17.2092C107.405 16.8571 106.723 16.681 105.944 16.681C105.112 16.681 104.382 16.8833 103.752 17.2879C103.123 17.685 102.632 18.2095 102.28 18.8614C101.935 19.5058 101.759 20.2139 101.752 20.9857V23.3797C101.752 24.3837 101.935 25.2454 102.302 25.9647C102.67 26.6766 103.183 27.2236 103.842 27.6057C104.502 27.9803 105.273 28.1677 106.158 28.1677C106.749 28.1677 107.285 28.0852 107.765 27.9204C108.244 27.7481 108.66 27.497 109.012 27.1674C109.364 26.8377 109.63 26.4293 109.81 25.9423L113.609 26.3694C113.369 27.3734 112.912 28.2501 112.238 28.9994C111.571 29.7412 110.717 30.3181 109.675 30.7303C108.634 31.1349 107.443 31.3372 106.101 31.3372ZM122.044 31.3035C120.688 31.3035 119.474 30.955 118.402 30.2582C117.331 29.5614 116.484 28.5498 115.862 27.2236C115.24 25.8973 114.929 24.2863 114.929 22.3906C114.929 20.4724 115.244 18.8539 115.873 17.5352C116.51 16.2089 117.368 15.2086 118.447 14.5343C119.526 13.8524 120.729 13.5115 122.055 13.5115C123.067 13.5115 123.898 13.6838 124.55 14.0285C125.202 14.3657 125.719 14.774 126.101 15.2536C126.483 15.7256 126.779 16.1715 126.989 16.5911H127.158V7.98168H131.238V31H127.236V28.2801H126.989C126.779 28.6997 126.476 29.1455 126.079 29.6176C125.682 30.0821 125.157 30.4792 124.505 30.8089C123.853 31.1386 123.033 31.3035 122.044 31.3035ZM123.179 27.9654C124.041 27.9654 124.775 27.7331 125.382 27.2685C125.989 26.7965 126.45 26.1408 126.764 25.3016C127.079 24.4624 127.236 23.4846 127.236 22.3681C127.236 21.2517 127.079 20.2813 126.764 19.4571C126.457 18.6329 126 17.9923 125.393 17.5352C124.794 17.0781 124.056 16.8496 123.179 16.8496C122.272 16.8496 121.516 17.0856 120.909 17.5577C120.302 18.0297 119.845 18.6816 119.537 19.5133C119.23 20.345 119.077 21.2966 119.077 22.3681C119.077 23.4471 119.23 24.41 119.537 25.2567C119.852 26.0959 120.313 26.759 120.92 27.246C121.534 27.7256 122.287 27.9654 123.179 27.9654ZM141.521 31.3372C139.835 31.3372 138.374 30.9663 137.138 30.2245C135.901 29.4827 134.942 28.4449 134.261 27.1112C133.586 25.7774 133.249 24.2189 133.249 22.4356C133.249 20.6522 133.586 19.09 134.261 17.7487C134.942 16.4075 135.901 15.366 137.138 14.6242C138.374 13.8824 139.835 13.5115 141.521 13.5115C143.207 13.5115 144.668 13.8824 145.905 14.6242C147.141 15.366 148.096 16.4075 148.771 17.7487C149.452 19.09 149.793 20.6522 149.793 22.4356C149.793 24.2189 149.452 25.7774 148.771 27.1112C148.096 28.4449 147.141 29.4827 145.905 30.2245C144.668 30.9663 143.207 31.3372 141.521 31.3372ZM141.544 28.0778C142.458 28.0778 143.222 27.8267 143.837 27.3247C144.451 26.8152 144.908 26.1333 145.208 25.2791C145.515 24.4249 145.669 23.4733 145.669 22.4243C145.669 21.3678 145.515 20.4125 145.208 19.5583C144.908 18.6966 144.451 18.011 143.837 17.5015C143.222 16.9919 142.458 16.7372 141.544 16.7372C140.607 16.7372 139.828 16.9919 139.206 17.5015C138.591 18.011 138.131 18.6966 137.823 19.5583C137.524 20.4125 137.374 21.3678 137.374 22.4243C137.374 23.4733 137.524 24.4249 137.823 25.2791C138.131 26.1333 138.591 26.8152 139.206 27.3247C139.828 27.8267 140.607 28.0778 141.544 28.0778ZM159.195 31.3372C157.471 31.3372 155.991 30.9588 154.755 30.202C153.526 29.4452 152.578 28.3999 151.911 27.0662C151.252 25.725 150.922 24.1814 150.922 22.4356C150.922 20.6822 151.26 19.1349 151.934 17.7937C152.608 16.445 153.56 15.3959 154.789 14.6467C156.025 13.8899 157.486 13.5115 159.172 13.5115C160.573 13.5115 161.813 13.77 162.892 14.287C163.979 14.7965 164.844 15.5196 165.489 16.4562C166.133 17.3853 166.5 18.4718 166.59 19.7156H162.701C162.544 18.8839 162.169 18.1908 161.577 17.6363C160.993 17.0744 160.21 16.7934 159.228 16.7934C158.397 16.7934 157.666 17.0182 157.037 17.4677C156.407 17.9098 155.916 18.5467 155.564 19.3784C155.22 20.2102 155.047 21.2067 155.047 22.3681C155.047 23.5445 155.22 24.5561 155.564 25.4028C155.909 26.242 156.392 26.8901 157.014 27.3472C157.644 27.7968 158.382 28.0216 159.228 28.0216C159.828 28.0216 160.364 27.9092 160.836 27.6844C161.315 27.4521 161.716 27.1187 162.038 26.6841C162.36 26.2495 162.581 25.7212 162.701 25.0993H166.59C166.493 26.3207 166.133 27.4034 165.511 28.3475C164.889 29.2841 164.043 30.0184 162.971 30.5504C161.9 31.0749 160.641 31.3372 159.195 31.3372ZM170.855 31.2473C170.173 31.2473 169.589 31.0075 169.102 30.5279C168.615 30.0484 168.375 29.4639 168.382 28.7746C168.375 28.1002 168.615 27.5233 169.102 27.0437C169.589 26.5642 170.173 26.3244 170.855 26.3244C171.514 26.3244 172.088 26.5642 172.575 27.0437C173.069 27.5233 173.32 28.1002 173.328 28.7746C173.32 29.2317 173.2 29.6475 172.968 30.0222C172.743 30.3968 172.443 30.6965 172.069 30.9213C171.702 31.1386 171.297 31.2473 170.855 31.2473ZM180.914 31.3484C179.82 31.3484 178.834 31.1536 177.958 30.764C177.089 30.3668 176.399 29.7824 175.89 29.0106C175.388 28.2389 175.137 27.2872 175.137 26.1558C175.137 25.1817 175.316 24.3762 175.676 23.7393C176.036 23.1024 176.527 22.5929 177.148 22.2108C177.77 21.8286 178.471 21.5402 179.25 21.3453C180.037 21.143 180.85 20.9969 181.689 20.907C182.701 20.8021 183.521 20.7084 184.151 20.626C184.78 20.5361 185.237 20.4012 185.522 20.2214C185.814 20.0341 185.96 19.7456 185.96 19.356V19.2885C185.96 18.4418 185.709 17.7862 185.207 17.3216C184.705 16.8571 183.982 16.6248 183.038 16.6248C182.041 16.6248 181.251 16.8421 180.666 17.2767C180.089 17.7113 179.7 18.2245 179.497 18.8165L175.699 18.277C175.998 17.228 176.493 16.3513 177.182 15.647C177.872 14.9351 178.714 14.4031 179.711 14.051C180.708 13.6913 181.809 13.5115 183.015 13.5115C183.847 13.5115 184.675 13.6089 185.499 13.8037C186.324 13.9985 187.077 14.3207 187.758 14.7703C188.44 15.2124 188.987 15.8156 189.399 16.5798C189.819 17.3441 190.029 18.2995 190.029 19.4459V31H186.118V28.6285H185.983C185.735 29.108 185.387 29.5576 184.937 29.9772C184.495 30.3893 183.937 30.7228 183.263 30.9775C182.596 31.2248 181.813 31.3484 180.914 31.3484ZM181.97 28.3587C182.787 28.3587 183.495 28.1976 184.094 27.8754C184.694 27.5458 185.155 27.1112 185.477 26.5717C185.807 26.0322 185.971 25.444 185.971 24.8071V22.7727C185.844 22.8776 185.627 22.9751 185.32 23.065C185.02 23.1549 184.683 23.2336 184.308 23.301C183.933 23.3684 183.562 23.4284 183.195 23.4808C182.828 23.5333 182.51 23.5782 182.24 23.6157C181.633 23.6981 181.09 23.833 180.61 24.0203C180.131 24.2076 179.752 24.4699 179.475 24.8071C179.198 25.1368 179.059 25.5639 179.059 26.0884C179.059 26.8377 179.333 27.4034 179.88 27.7855C180.427 28.1677 181.123 28.3587 181.97 28.3587ZM192.537 31V13.7363H196.606V31H192.537ZM194.583 11.2861C193.939 11.2861 193.384 11.0725 192.92 10.6454C192.455 10.2108 192.223 9.69007 192.223 9.08314C192.223 8.46872 192.455 7.94796 192.92 7.52086C193.384 7.08627 193.939 6.86898 194.583 6.86898C195.235 6.86898 195.789 7.08627 196.246 7.52086C196.711 7.94796 196.943 8.46872 196.943 9.08314C196.943 9.69007 196.711 10.2108 196.246 10.6454C195.789 11.0725 195.235 11.2861 194.583 11.2861Z" fill="#2263DE"/>
</svg>
