<svg width="25" height="24" viewBox="0 0 25 24" fill="none" xmlns="http://www.w3.org/2000/svg">
<g clip-path="url(#clip0_7743_12953)">
<path d="M22.5627 5.6569C21.7992 5.9946 20.9896 6.21638 20.1607 6.3149C21.0344 5.79234 21.6884 4.96992 22.0007 4.0009C21.1807 4.4889 20.2817 4.8309 19.3447 5.0159C18.7153 4.34248 17.881 3.89587 16.9716 3.74549C16.0622 3.59511 15.1286 3.74939 14.316 4.18436C13.5033 4.61932 12.8571 5.31059 12.4778 6.1507C12.0985 6.9908 12.0074 7.93268 12.2187 8.8299C10.5558 8.74656 8.92902 8.31443 7.44397 7.56157C5.95893 6.80871 4.64882 5.75195 3.59869 4.4599C3.22698 5.09835 3.03164 5.82413 3.03269 6.5629C3.03269 8.0129 3.77069 9.2939 4.89269 10.0439C4.2287 10.023 3.57932 9.84368 2.99869 9.5209V9.5729C2.99889 10.5386 3.33306 11.4745 3.94454 12.222C4.55601 12.9694 5.40717 13.4824 6.35369 13.6739C5.7373 13.8409 5.09099 13.8656 4.46369 13.7459C4.73055 14.5771 5.25069 15.3041 5.95128 15.825C6.65186 16.3459 7.49782 16.6347 8.37069 16.6509C7.50317 17.3322 6.50986 17.8359 5.44757 18.1331C4.38527 18.4303 3.27481 18.5152 2.17969 18.3829C4.09139 19.6123 6.31678 20.265 8.58969 20.2629C16.2827 20.2629 20.4897 13.8899 20.4897 8.3629C20.4897 8.1829 20.4847 8.0009 20.4767 7.8229C21.2956 7.23107 22.0023 6.49792 22.5637 5.6579L22.5627 5.6569Z" fill="#6A7C94"/>
</g>
<defs>
<clipPath id="clip0_7743_12953">
<rect width="24" height="24" fill="white" transform="translate(0.400391)"/>
</clipPath>
</defs>
</svg>
